<?xml version="1.0" encoding="UTF-8" standalone="no"?>
<svg
   xmlns:dc="http://purl.org/dc/elements/1.1/"
   xmlns:cc="http://creativecommons.org/ns#"
   xmlns:rdf="http://www.w3.org/1999/02/22-rdf-syntax-ns#"
   xmlns:svg="http://www.w3.org/2000/svg"
   xmlns="http://www.w3.org/2000/svg"
   xmlns:sodipodi="http://sodipodi.sourceforge.net/DTD/sodipodi-0.dtd"
   xmlns:inkscape="http://www.inkscape.org/namespaces/inkscape"
   version="1.1"
   id="svg3576"
   viewBox="0 0 744.09448819 1052.3622047"
   height="297mm"
   width="210mm"
   inkscape:version="0.91 r13725"
   sodipodi:docname="jb.svg">
  <sodipodi:namedview
     pagecolor="#ffffff"
     bordercolor="#666666"
     borderopacity="1"
     objecttolerance="10"
     gridtolerance="10"
     guidetolerance="10"
     inkscape:pageopacity="0"
     inkscape:pageshadow="2"
     inkscape:window-width="1856"
     inkscape:window-height="1059"
     id="namedview26"
     showgrid="false"
     inkscape:zoom="1.55"
     inkscape:cx="275.91821"
     inkscape:cy="577.79401"
     inkscape:window-x="0"
     inkscape:window-y="0"
     inkscape:window-maximized="1"
     inkscape:current-layer="svg3576" />
  <defs
     id="defs3578" />
  <metadata
     id="metadata3581">
    <rdf:RDF>
      <cc:Work
         rdf:about="">
        <dc:format>image/svg+xml</dc:format>
        <dc:type
           rdf:resource="http://purl.org/dc/dcmitype/StillImage" />
        <dc:title />
      </cc:Work>
    </rdf:RDF>
  </metadata>
  <path
     inkscape:connector-curvature="0"
     d="m 87.282419,688.65862 596.863731,0 0,-466.87856 -596.863731,0 0,466.87856 z"
     style="fill:#fff98c;fill-opacity:1;fill-rule:nonzero;stroke:none"
     id="path14" />
  <text
     sodipodi:linespacing="200%"
     xml:space="preserve"
     style="font-style:normal;font-variant:normal;font-weight:bold;font-stretch:normal;font-size:466.6829834px;line-height:200%;font-family:'Linux Biolinum';-inkscape-font-specification:'Linux Biolinum, Bold';text-align:start;letter-spacing:0px;word-spacing:0px;writing-mode:lr-tb;text-anchor:start;fill:#fee958;fill-opacity:1;stroke:none;stroke-width:1px;stroke-linecap:butt;stroke-linejoin:miter;stroke-opacity:1"
     x="139.87573"
     y="571.57928"
     id="text3526-3"><tspan
       id="tspan3528-5"
       x="139.87573"
       y="571.57928">J</tspan></text>
  <path
     inkscape:connector-curvature="0"
     d="m 548.97672,386.84542 c -2.00375,0 -4.09625,0.0712 -6.375,0.21625 -0.725,-5.5625 -0.27375,-10.34625 1.33,-13.1125 0.825,-1.42625 2.36875,-3.16625 7.01,-3.9675 3.2475,-0.55875 6.08375,-2.35 7.98375,-5.0425 1.9,-2.6925 2.6375,-5.96375 2.0775,-9.20875 -1.0225,-5.93625 -6.125,-10.245 -12.13,-10.245 -0.71875,0 -1.44375,0.0637 -2.1225,0.18375 -5.42125,0.935 -10.21875,2.77375 -14.27875,5.44 -1.645,-32.20499 -9.1575,-53.64999 -22.4,-63.85374 -5.6325,-4.33625 -12.41625,-6.62875 -19.6225,-6.62875 -5.58875,0 -11.5025,1.35625 -17.57875,4.02875 -18.99125,8.35625 -29.69375,26.07 -31.81,52.64749 -0.75875,9.52375 -0.40875,20.06875 1.03875,31.545 -19.46625,-25.87 -46.32375,-48.52624 -80.6725,-48.52624 -8.7125,0 -17.63,1.51874 -26.50875,4.51249 -28.645,9.675 -42.65125,31.67375 -37.46625,58.8475 2.4225,12.69 8.9125,25.97125 18.87875,38.71 -8.23,7.21875 -21.44,20.47125 -31.9575,38.82375 -16.27125,28.395 -20.7475,58.72875 -13.3025,90.16 8.67,36.6075 43.91375,63.935 94.27875,73.10375 2.86375,0.52125 5.91875,0.98375 9.5475,1.44375 1.04,0.415 2.13,0.6875 3.23,0.80875 -0.0375,6.73375 1.18,15.05125 5.49875,23.69 2.105,4.205 6.33375,6.8175 11.03625,6.8175 1.89625,0 3.80125,-0.45 5.515,-1.305 6.07875,-3.0425 8.55375,-10.465 5.51625,-16.55125 -2.155,-4.30875 -2.79875,-8.55375 -2.87,-11.865 3.7475,-0.0588 7.49125,-0.22875 11.20125,-0.5075 1.155,7.12625 3.32625,16.445 7.3375,23.8 2.165,3.965 6.3175,6.42875 10.835,6.42875 2.05375,0 4.095,-0.5225 5.9025,-1.51 5.97,-3.25875 8.1775,-10.76625 4.92125,-16.73625 -1.915,-3.51125 -3.5275,-9.025 -4.595,-15.585 1.17625,-0.265 2.34125,-0.545 3.4925,-0.835 1.04875,-0.13875 2.07125,-0.41375 3.05625,-0.82 1.2925,-0.35875 2.575,-0.73625 3.84,-1.12875 2.38,9.5725 7.31375,17.06125 14.2875,21.49875 1.9825,1.26 4.27,1.9275 6.615,1.9275 4.2425,0 8.135,-2.135 10.415,-5.71375 1.65875,-2.6075 2.2725,-5.67375 1.75375,-8.69875 1.6225,0.795 3.33125,1.42 5.12,1.86625 0.98375,0.24875 1.99625,0.375 3.01,0.375 5.6675,0 10.5875,-3.84375 11.9625,-9.345 0.80125,-3.19625 0.3075,-6.515 -1.38875,-9.34125 -1.695,-2.82625 -4.39,-4.82125 -7.585,-5.62 -1.93125,-0.4825 -4.1825,-5.94375 -4.87,-10.27125 0.44125,-0.49875 0.8775,-1.00875 1.30875,-1.53 8.0775,1.82125 17.00875,2.7425 26.6225,2.7425 48.455,0 103.48125,-24.16125 122.6625,-53.86 17.625,-27.2925 16.81125,-70.44875 -1.9775,-104.94875 -18.29375,-33.59375 -50.2875,-52.86 -87.77375,-52.86"
     style="fill:#fee958;fill-opacity:1;fill-rule:nonzero;stroke:none"
     id="path16" />
  <path
     inkscape:connector-curvature="0"
     d="m 559.60172,369.97042 c -2.00375,0 -4.09625,0.0712 -6.375,0.21625 -0.725,-5.5625 -0.27375,-10.34625 1.33,-13.1125 0.825,-1.42625 2.36875,-3.16625 7.01,-3.9675 3.2475,-0.55875 6.08375,-2.35 7.98375,-5.0425 1.9,-2.6925 2.6375,-5.96375 2.0775,-9.20875 -1.0225,-5.93625 -6.125,-10.245 -12.13,-10.245 -0.71875,0 -1.44375,0.0637 -2.1225,0.18375 -5.42125,0.935 -10.21875,2.77375 -14.27875,5.44 -1.645,-32.20499 -9.1575,-53.64999 -22.4,-63.85374 -5.6325,-4.33625 -12.41625,-6.62875 -19.6225,-6.62875 -5.58875,0 -11.5025,1.35625 -17.57875,4.02875 -18.99125,8.3575 -29.69375,26.07 -31.81,52.6475 -0.75875,9.52374 -0.40875,20.06874 1.03875,31.54499 -19.46625,-25.87 -46.32375,-48.52624 -80.6725,-48.52624 -8.7125,0 -17.63,1.51875 -26.50875,4.5125 -28.645,9.675 -42.65125,31.67374 -37.46625,58.84749 2.4225,12.69 8.9125,25.97125 18.87875,38.71 -8.23,7.21875 -21.44,20.47125 -31.9575,38.82375 -16.27125,28.395 -20.7475,58.72875 -13.3025,90.16 8.67,36.6075 43.91375,63.935 94.27875,73.10375 2.86375,0.52125 5.91875,0.98375 9.5475,1.44375 1.04,0.415 2.13,0.6875 3.23,0.80875 -0.0375,6.73375 1.18,15.05125 5.49875,23.69 2.105,4.205 6.33375,6.8175 11.03625,6.8175 1.89625,0 3.80125,-0.45 5.515,-1.305 6.07875,-3.0425 8.55375,-10.465 5.51625,-16.55125 -2.155,-4.30875 -2.79875,-8.55375 -2.87,-11.865 3.7475,-0.0588 7.49125,-0.22875 11.20125,-0.5075 1.155,7.12625 3.32625,16.445 7.3375,23.8 2.165,3.965 6.3175,6.42875 10.835,6.42875 2.05375,0 4.095,-0.5225 5.9025,-1.51 5.97,-3.25875 8.1775,-10.76625 4.92125,-16.73625 -1.915,-3.51125 -3.5275,-9.025 -4.595,-15.585 1.17625,-0.265 2.34125,-0.545 3.4925,-0.835 1.04875,-0.13875 2.07125,-0.41375 3.05625,-0.82 1.2925,-0.35875 2.575,-0.73625 3.84,-1.12875 2.38,9.5725 7.31375,17.06125 14.2875,21.49875 1.9825,1.26 4.27,1.9275 6.615,1.9275 4.2425,0 8.135,-2.135 10.415,-5.71375 1.65875,-2.6075 2.2725,-5.67375 1.75375,-8.69875 1.6225,0.795 3.33125,1.42 5.12,1.86625 0.98375,0.24875 1.99625,0.375 3.01,0.375 5.6675,0 10.5875,-3.84375 11.9625,-9.345 0.80125,-3.19625 0.3075,-6.515 -1.38875,-9.34125 -1.695,-2.82625 -4.39,-4.82125 -7.585,-5.62 -1.93125,-0.4825 -4.1825,-5.94375 -4.87,-10.27125 0.44125,-0.49875 0.8775,-1.00875 1.30875,-1.53 8.0775,1.82125 17.00875,2.7425 26.6225,2.7425 48.455,0 103.48125,-24.16125 122.6625,-53.86 17.625,-27.2925 16.81125,-70.44875 -1.9775,-104.94875 -18.29375,-33.59375 -50.2875,-52.86 -87.77375,-52.86"
     style="fill:#351f17;fill-opacity:1;fill-rule:nonzero;stroke:none"
     id="path28" />
  <path
     inkscape:connector-curvature="0"
     d="m 559.60172,376.22042 c -3.73875,0 -7.58875,0.2725 -11.46875,0.66625 -1.555,-6.40375 -2.78125,-16.39375 1.01375,-22.945 2.18,-3.76375 5.895,-6.05 11.35875,-6.99375 3.3125,-0.57 5.53625,-3.71875 4.96375,-7.03125 -0.57125,-3.3125 -3.72125,-5.55125 -7.0325,-4.9625 -9.11125,1.57 -15.78,5.905 -19.82375,12.885 -0.53875,0.93 -1.01125,1.885 -1.43,2.86 0.19875,-27.07 -3.1525,-62.15624 -20.3,-75.36749 -5.8075,-4.47125 -15.87875,-8.42625 -30.87,-1.83 -37.81625,16.63875 -30.14875,73.39624 -20.885,109.27249 -19.6775,-35.49625 -59.84125,-88.36874 -117.585,-68.89249 -25.79375,8.71124 -37.94,27.57499 -33.32625,51.75374 2.5825,13.53 10.235,27.64 21.5,40.7 -13.5975,10.77625 -64.545,56.61625 -47.94,126.725 8.08,34.1175 41.47,59.685 89.3175,68.395 3.31625,0.60375 6.71125,1.085 10.13625,1.5075 0.88,0.465 1.85375,0.7175 2.8425,0.7175 0.5025,0 1.0025,-0.10625 1.49625,-0.2325 1.28375,0.1275 2.5675,0.2425 3.86,0.345 -0.79,5.84625 -0.99875,16.1375 4.40875,26.955 1.06875,2.13125 3.21625,3.36625 5.44875,3.36625 0.915,0 1.845,-0.20875 2.71875,-0.64375 3.005,-1.50375 4.22375,-5.16 2.72125,-8.1675 -4.3975,-8.795 -3.70375,-17.245 -3.075,-20.9475 0.93125,0.0125 1.85875,0.0613 2.79,0.0613 6.5675,0 13.13625,-0.35 19.59125,-1.05125 0.7175,6.4925 2.63625,18.7675 7.43875,27.575 1.10625,2.025 3.19375,3.17375 5.35,3.17375 0.985,0 1.9825,-0.24 2.90875,-0.745 2.95,-1.61125 4.0375,-5.3075 2.42875,-8.2575 -3.9075,-7.1625 -5.495,-18.08875 -6.0725,-23.52375 3.16875,-0.58875 6.2825,-1.2725 9.335,-2.05375 0.72,-0.0588 1.41375,-0.24625 2.0825,-0.5625 3.73625,-1.0225 7.35625,-2.19375 10.84625,-3.52125 0.7075,7.14875 3.34125,18.54875 12.73125,24.52375 1.0125,0.64375 2.14375,0.95125 3.26125,0.95125 2.01,0 3.98,-0.9975 5.14125,-2.82 1.805,-2.835 0.96875,-6.5975 -1.86875,-8.4025 -6.53375,-4.15875 -7.5075,-15.47875 -7.33375,-19.71875 1.74375,-0.95375 3.43,-1.95875 5.05875,-3.015 1.71625,6.85625 6.295,18.72 17.82,21.6 0.495,0.125 0.9925,0.185 1.48,0.185 2.7275,0 5.20875,-1.84625 5.9,-4.6125 0.81625,-3.26125 -1.1675,-6.56625 -4.4275,-7.38 -7.73125,-1.93375 -9.6,-15.84 -9.63125,-16.08625 -0.0838,-0.735 -0.3125,-1.415 -0.62625,-2.04125 2.13375,-2.1125 4.03375,-4.3925 5.76125,-6.7875 8.53125,2.3375 18.26,3.5425 29.06125,3.5425 l 0.0112,0 c 46.58,0 99.24875,-22.87625 117.4125,-51 16.43875,-25.45625 15.53,-65.9875 -2.215,-98.57 -17.165,-31.51875 -47.1575,-49.59875 -82.285,-49.59875"
     style="fill:#ffffff;fill-opacity:1;fill-rule:nonzero;stroke:none"
     id="path40" />
  <path
     inkscape:connector-curvature="0"
     d="m 422.64672,448.29167 c 0.64125,-0.0737 1.3,-0.0737 1.96625,0.0688 0.8875,0.19 1.67625,0.575 2.35875,1.08375 11.39375,2.8875 23.3575,4.3375 35.62,3.9125 2.315,-7.88875 5.49,-15.545 9.76625,-22.73375 1.36625,-2.2975 2.8475,-4.4875 4.3825,-6.62625 -0.53625,-0.5675 -0.97375,-1.24625 -1.26875,-2.02 -0.4375,-1.155 -44.49625,-114.91999 -116.11625,-90.7275 -19.97875,6.74375 -28.715,19.86375 -25.265,37.93875 5.38375,28.22375 41.67125,65.57875 88.55625,79.10375"
     style="fill:#fff98a;fill-opacity:1;fill-rule:nonzero;stroke:none"
     id="path52" />
  <path
     inkscape:connector-curvature="0"
     d="m 416.33672,459.03792 c -14.32,-4.44375 -27.8175,-10.92625 -39.92125,-18.72 -5.87375,21.05875 -20.5525,92.0775 24.68625,156.90625 16.3725,1.6525 32.36625,0.98 46.6375,-1.72625 -40.285,-51.8125 -34.4275,-116.57875 -31.4025,-136.46"
     style="fill:#fbc707;fill-opacity:1;fill-rule:nonzero;stroke:none"
     id="path54" />
  <path
     inkscape:connector-curvature="0"
     d="m 349.63297,582.38667 c 0.18375,0.3575 0.32375,0.725 0.4325,1.0975 10.2125,4.98375 21.95,8.83375 34.9275,11.37375 -44.25625,-71.86 -24.27125,-145.9525 -19.11625,-161.9275 -4.95,-3.77 -9.59875,-7.75 -13.8725,-11.8975 -2.94125,2.20125 -9.1425,7.1675 -16.155,14.735 -0.26,0.8775 -22.105,76.78 13.78375,146.61875"
     style="fill:#8b3f2b;fill-opacity:1;fill-rule:nonzero;stroke:none"
     id="path56" />
  <path
     inkscape:connector-curvature="0"
     d="m 639.11297,437.47542 c -8.795,-16.1525 -29.79375,-43.24875 -71.59375,-43.24875 -4.84625,0 -9.8925,0.3775 -14.995,1.12125 -32.71625,4.77125 -56.1675,18.73375 -69.70625,41.4975 -19.205,32.3 -14.35,75.5675 -3.3975,105.29 8.62625,23.41625 38.27,26.915 55.17375,26.915 l 0.0125,0 c 42.19625,0.002 91.2775,-20.80375 107.185,-45.43375 13.90625,-21.53 12.77875,-57.7575 -2.67875,-86.14125"
     style="fill:#fbc707;fill-opacity:1;fill-rule:nonzero;stroke:none"
     id="path58" />
  <path
     inkscape:connector-curvature="0"
     d="m 318.90672,458.63042 c -11.18125,19.36375 -18.93625,45.5025 -11.36875,77.4575 3.2575,13.75625 11.61625,25.90625 23.9625,35.76625 -17.535,-43.71 -16.19875,-86.7275 -12.59375,-113.22375"
     style="fill:#fbc707;fill-opacity:1;fill-rule:nonzero;stroke:none"
     id="path60" />
  <path
     inkscape:connector-curvature="0"
     d="m 467.99672,546.34292 c -8.32125,-22.58625 -13.29125,-52.49625 -8.275,-80.74125 -0.38,0.004 -0.76125,0.03 -1.14125,0.03 -10.28375,0 -20.46,-1.21375 -30.35,-3.42375 -2.73375,20.26375 -7.1775,83.0325 32.61625,130.12125 14.04625,-4.27375 25.51125,-10.78125 32.70875,-19.09125 -12.4,-5.90375 -21.1625,-14.96125 -25.55875,-26.895"
     style="fill:#8b3f2b;fill-opacity:1;fill-rule:nonzero;stroke:none"
     id="path62" />
  <path
     inkscape:connector-curvature="0"
     d="m 543.98047,384.43792 c -0.065,-0.29 -0.13,-0.57875 -0.19375,-0.88125 -0.0288,0.3225 -0.0562,0.635 -0.085,0.94 l 0.27875,-0.0588"
     style="fill:#fbc707;fill-opacity:1;fill-rule:nonzero;stroke:none"
     id="path84" />
  <path
     inkscape:connector-curvature="0"
     d="m 503.39172,356.78167 c 2.88625,-1.7275 6.62125,-0.79625 8.35125,2.08625 1.73,2.8825 0.79375,6.62125 -2.08625,8.35125 -11.575,6.94375 -10.33,24.46 -8.73,33.73875 8.84875,-5.7575 18.9425,-10.29125 30.30875,-13.525 2.66,-19.9175 5.20375,-81.93499 -13.86375,-96.62499 -4.72125,-3.6375 -10.7825,-3.75 -18.54125,-0.33125 -31.41875,13.82625 -21.315,72.06624 -10.62625,107.31874 -1.3575,-12.7 -0.36875,-31.68125 15.1875,-41.01375"
     style="fill:#fff98a;fill-opacity:1;fill-rule:nonzero;stroke:none"
     id="path88" />
  <path
     inkscape:connector-curvature="0"
     d="m 633.87547,517.78292 c -15.9075,24.63125 -64.98875,45.43625 -107.18625,45.43375 l -0.0112,0 c -16.90375,0 -46.5475,-3.49875 -55.17375,-26.915 -10.9525,-29.7225 -15.80875,-72.98875 3.3975,-105.28875 13.5375,-22.765 36.99,-36.7275 69.70625,-41.4975 5.10125,-0.745 10.1475,-1.12125 14.99375,-1.12125 41.80125,0 62.8,27.095 71.595,43.24875 15.4575,28.3825 16.585,64.61 2.67875,86.14 z m -180.945,68.7125 c -39.79375,-47.08875 -35.35125,-109.8575 -32.61625,-130.12 9.88875,2.20875 20.06625,3.4225 30.34875,3.4225 0.38,0 0.7625,-0.0263 1.1425,-0.0288 -5.0175,28.24375 -0.0462,58.15375 8.275,80.74125 4.39625,11.93375 13.15875,20.99 25.5575,26.89375 -7.1975,8.31 -18.66125,14.81875 -32.7075,19.09125 z m -59.745,4.89625 c -45.23875,-64.83 -30.56,-135.84875 -24.68625,-156.9075 12.10375,7.79375 25.60125,14.27625 39.92125,18.72125 -3.025,19.88 -8.88375,84.6475 31.40125,136.45875 -14.27,2.70625 -30.26375,3.37875 -46.63625,1.7275 z m -93.565,-61.13625 c -7.5675,-31.955 0.1875,-58.095 11.37,-77.45875 -3.60625,26.49625 -4.94125,69.51375 12.5925,113.22375 -12.34625,-9.86 -20.70375,-22.01 -23.9625,-35.765 z m 44.46625,-115.055 c 4.275,4.1475 8.92375,8.12625 13.8725,11.8975 -5.15375,15.97375 -25.14,90.0675 19.1175,161.92625 -12.9775,-2.54 -24.71625,-6.39 -34.92875,-11.37375 -0.1075,-0.37125 -0.2475,-0.74 -0.43125,-1.0975 -35.89,-69.83875 -14.04375,-145.74 -13.78375,-146.61875 7.0125,-7.5675 13.2125,-12.53375 16.15375,-14.73375 z m 7.35125,-89.785 c 71.62125,-24.19249 115.68,89.5725 116.1175,90.7275 0.29375,0.775 0.73125,1.4525 1.2675,2.02 -1.535,2.13875 -3.01625,4.32875 -4.3825,6.62625 -4.275,7.18875 -7.45,14.845 -9.765,22.735 -12.2625,0.42375 -24.22625,-1.025 -35.62125,-3.91375 -0.68125,-0.50875 -1.47125,-0.89375 -2.3575,-1.0825 -0.66625,-0.14375 -1.325,-0.14375 -1.9675,-0.0687 -46.88375,-13.52625 -83.17125,-50.88 -88.555,-79.10375 -3.45,-18.075 5.285,-31.195 25.26375,-37.94 z m 139.47625,-40.77124 c 7.75875,-3.42 13.81875,-3.3075 18.54125,0.33 19.0675,14.69125 16.52375,76.70749 13.86375,96.62624 -11.3675,3.2325 -21.46125,7.76625 -30.30875,13.52375 -1.60125,-9.2775 -2.845,-26.795 8.73,-33.73875 2.88,-1.73 3.815,-5.46875 2.08625,-8.35125 -1.73,-2.8825 -5.465,-3.81375 -8.35125,-2.08625 -15.55625,9.33375 -16.54625,28.31375 -15.1875,41.01375 -10.69,-35.2525 -20.79375,-93.49249 10.62625,-107.31749 z m 45.14875,93.95999 -0.2775,0.0588 c 0.0275,-0.30375 0.0563,-0.6175 0.085,-0.94 0.0637,0.30375 0.1275,0.5925 0.1925,0.88125 z m 23.53875,-2.38375 c -3.73875,0 -7.58875,0.2725 -11.46875,0.66625 -1.555,-6.40375 -2.78125,-16.39375 1.01375,-22.945 2.18,-3.76375 5.895,-6.05 11.35875,-6.99375 3.3125,-0.57 5.53625,-3.71875 4.96375,-7.03125 -0.57125,-3.3125 -3.72125,-5.55125 -7.0325,-4.9625 -9.11125,1.57 -15.78,5.905 -19.82375,12.885 -0.53875,0.93 -1.01125,1.88625 -1.43,2.86 0.19875,-27.07 -3.1525,-62.15624 -20.3,-75.36749 -5.8075,-4.47125 -15.8775,-8.42625 -30.87,-1.83 -37.81625,16.63875 -30.14875,73.39624 -20.885,109.27249 -19.6775,-35.49625 -59.84125,-88.36874 -117.585,-68.89249 -25.79375,8.71124 -37.94,27.57499 -33.32625,51.75374 2.5825,13.53 10.235,27.64 21.5,40.7 -13.5975,10.77625 -64.545,56.61625 -47.94,126.725 8.08,34.1175 41.47,59.685 89.3175,68.395 3.31625,0.60375 6.71125,1.085 10.13625,1.5075 0.88,0.465 1.85375,0.7175 2.8425,0.7175 0.5025,0 1.0025,-0.10625 1.49625,-0.2325 1.28375,0.1275 2.5675,0.2425 3.86,0.345 -0.79,5.84625 -0.99875,16.1375 4.40875,26.955 1.06875,2.13125 3.21625,3.36625 5.44875,3.36625 0.915,0 1.845,-0.20875 2.71875,-0.64375 3.005,-1.50375 4.22375,-5.16 2.7225,-8.1675 -4.39875,-8.795 -3.705,-17.24375 -3.07625,-20.9475 0.93125,0.0125 1.85875,0.0613 2.79,0.0613 6.5675,0 13.13625,-0.35 19.59125,-1.05125 0.7175,6.4925 2.63625,18.7675 7.43875,27.575 1.10625,2.025 3.19375,3.17375 5.35,3.17375 0.985,0 1.9825,-0.24 2.90875,-0.745 2.95,-1.61125 4.0375,-5.3075 2.42875,-8.2575 -3.9075,-7.1625 -5.495,-18.08875 -6.0725,-23.52375 3.16875,-0.58875 6.2825,-1.2725 9.335,-2.05375 0.72,-0.0588 1.41375,-0.24625 2.0825,-0.5625 3.73625,-1.0225 7.35625,-2.19375 10.84625,-3.52125 0.7075,7.14875 3.34125,18.54875 12.73125,24.52375 1.0125,0.64375 2.14375,0.95125 3.26125,0.95125 2.01,0 3.98,-0.9975 5.14125,-2.82 1.805,-2.835 0.96875,-6.5975 -1.86875,-8.4025 -6.53375,-4.15875 -7.5075,-15.47875 -7.33375,-19.71875 1.74375,-0.95375 3.43,-1.95875 5.05875,-3.015 1.71625,6.85625 6.295,18.72 17.82,21.6 0.495,0.125 0.9925,0.185 1.48,0.185 2.7275,0 5.20875,-1.84625 5.9,-4.6125 0.81625,-3.26125 -1.1675,-6.56625 -4.4275,-7.38 -7.73125,-1.93375 -9.6,-15.84 -9.63125,-16.08625 -0.0838,-0.735 -0.3125,-1.415 -0.62625,-2.04125 2.13375,-2.1125 4.03375,-4.3925 5.76125,-6.7875 8.53125,2.3375 18.26,3.5425 29.06125,3.54375 l 0.0112,0 c 46.58,0 99.24875,-22.8775 117.4125,-51.00125 16.43875,-25.45625 15.53,-65.9875 -2.215,-98.57 -17.165,-31.51875 -47.1575,-49.59875 -82.285,-49.59875"
     style="fill:#351f17;fill-opacity:1;fill-rule:nonzero;stroke:#351f17;stroke-opacity:1"
     id="path136" />
  <path
     inkscape:connector-curvature="0"
     d="m 548.72547,458.07667 c -3.8375,-6.08125 -15.6775,-15.20875 -32.97625,-6.2075 -17.06625,8.87625 -16.90625,24.645 -14.435,31.74375 0.87,2.50375 3.205,4.0575 5.71375,4.0575 0.6475,0 1.305,-0.10375 1.955,-0.32125 3.16,-1.0575 4.87,-4.4975 3.8475,-7.67125 -0.5775,-1.79875 -2.88625,-11.07 8.53375,-17.00875 11.1125,-5.78375 16.20625,0.6375 17.07,1.905 1.7975,2.8475 5.56,3.69375 8.395,1.89625 2.8425,-1.795 3.69125,-5.5525 1.89625,-8.39375"
     style="fill:#351f17;fill-opacity:1;fill-rule:nonzero;stroke:none"
     id="path150" />
  <path
     inkscape:connector-curvature="0"
     d="m 573.20797,455.06667 c 0.64375,0 1.29875,-0.10125 1.9475,-0.3175 3.1575,-1.05125 4.87125,-4.4875 3.8625,-7.65875 -0.4825,-1.5175 -2.39875,-9.34125 7.28125,-14.37375 9.13125,-4.75375 13.33375,-0.0163 14.35,1.46625 1.7975,2.845 5.55625,3.69625 8.395,1.895 2.8425,-1.795 3.69125,-5.5525 1.89625,-8.39375 -3.53625,-5.5975 -14.4075,-14.00375 -30.25625,-5.77 -15.61375,8.12 -15.45375,22.58625 -13.18625,29.10125 0.86875,2.5025 3.20125,4.05125 5.71,4.05125"
     style="fill:#351f17;fill-opacity:1;fill-rule:nonzero;stroke:none"
     id="path152" />
  <path
     inkscape:connector-curvature="0"
     d="m 606.44672,470.43667 c -3.12375,1.245 -4.6475,4.78375 -3.40375,7.90625 0.2875,0.72125 6.79625,17.77125 -13.165,28.965 -19.18125,10.7525 -28.77375,-1.33875 -29.77,-2.7025 -1.92625,-2.75125 -5.7125,-3.42375 -8.47625,-1.50125 -2.75625,1.92625 -3.4275,5.72 -1.5025,8.47625 3.735,5.34125 12.5025,12.3125 24.97625,12.31125 6.08,0 13.0425,-1.65625 20.7275,-5.9675 23.325,-13.08 22.3125,-34.555 18.51875,-44.08375 -1.2425,-3.12375 -4.785,-4.64125 -7.905,-3.40375"
     style="fill:#351f17;fill-opacity:1;fill-rule:nonzero;stroke:none"
     id="path154" />
  <text
     sodipodi:linespacing="200%"
     xml:space="preserve"
     style="font-style:normal;font-variant:normal;font-weight:bold;font-stretch:normal;font-size:466.6829834px;line-height:200%;font-family:'Linux Biolinum';-inkscape-font-specification:'Linux Biolinum, Bold';text-align:start;letter-spacing:0px;word-spacing:0px;writing-mode:lr-tb;text-anchor:start;fill:#351f17;fill-opacity:1;stroke:none;stroke-width:1px;stroke-linecap:butt;stroke-linejoin:miter;stroke-opacity:1"
     x="127.74557"
     y="557.08356"
     id="text3526"><tspan
       id="tspan3528"
       x="127.74557"
       y="557.08356">J</tspan></text>
</svg>
